<svg xmlns="http://www.w3.org/2000/svg" viewBox="0 0 149.12 49.42"><defs><style>.cls-1{fill:#950570;fill-rule:evenodd;}</style></defs><g id="Layer_2" data-name="Layer 2"><g id="Layer_1-2" data-name="Layer 1"><polygon class="cls-1" points="0 41.54 23.49 0 33.28 0 15.13 32.97 30.82 32.97 24.72 22.22 29.75 12.83 46.26 41.54 0 41.54"/><path class="cls-1" d="M51.89,13.14H67.35a8.18,8.18,0,0,1,5.94,2,6.66,6.66,0,0,1,2.07,5,6.48,6.48,0,0,1-1.48,4.26A6.55,6.55,0,0,1,71,26.27a7.34,7.34,0,0,1,4.23,2.5,7.05,7.05,0,0,1,1.36,4.44,7.9,7.9,0,0,1-1,3.93A7.19,7.19,0,0,1,73,39.89a8.4,8.4,0,0,1-3.14.92,32.72,32.72,0,0,1-3.7.38H51.89Zm8.32,11h3.6a4,4,0,0,0,2.69-.7,2.6,2.6,0,0,0,.76-2,2.45,2.45,0,0,0-.76-1.92,3.91,3.91,0,0,0-2.64-.69H60.21Zm0,11h4.22a4.46,4.46,0,0,0,3-.8,2.7,2.7,0,0,0,.88-2.13,2.53,2.53,0,0,0-.87-2,4.71,4.71,0,0,0-3-.75H60.21Z"/><path class="cls-1" d="M86.23,27.44l-7.09-.78a8.74,8.74,0,0,1,1.16-3.08,6.47,6.47,0,0,1,2.17-1.95,8.81,8.81,0,0,1,2.81-.91,21.08,21.08,0,0,1,3.85-.33,29.3,29.3,0,0,1,5.35.39,6.73,6.73,0,0,1,3.37,1.64,5.73,5.73,0,0,1,1.49,2.44,9.13,9.13,0,0,1,.55,3v9a11,11,0,0,0,.17,2.25,11,11,0,0,0,.75,2.08H93.87A8.23,8.23,0,0,1,93.32,40a9.48,9.48,0,0,1-.25-1.29,9.71,9.71,0,0,1-2.9,2.1,11.54,11.54,0,0,1-4.57.84A7.39,7.39,0,0,1,80.34,40a5.49,5.49,0,0,1-1.79-4.16A5.64,5.64,0,0,1,79.84,32c.86-1,2.46-1.74,4.77-2.22,2.79-.59,4.59-1,5.42-1.24a26.14,26.14,0,0,0,2.62-.93,2.9,2.9,0,0,0-.56-2,2.76,2.76,0,0,0-2-.57,4.88,4.88,0,0,0-2.73.62A3.32,3.32,0,0,0,86.23,27.44Zm6.42,4.08c-1,.38-2.09.72-3.19,1a7.14,7.14,0,0,0-2.87,1.26,2.09,2.09,0,0,0,0,3,2.47,2.47,0,0,0,1.8.59,4.37,4.37,0,0,0,2.31-.64,3.67,3.67,0,0,0,1.51-1.55,5.45,5.45,0,0,0,.45-2.39Z"/><path class="cls-1" d="M117.32,20.86h6.94V40.05l0,.9a8.79,8.79,0,0,1-.78,3.64,7.52,7.52,0,0,1-2.06,2.8,7.7,7.7,0,0,1-3.25,1.55,19.31,19.31,0,0,1-4.53.48c-3.89,0-6.55-.61-8-1.84a6.1,6.1,0,0,1-2.18-4.92c0-.26,0-.6,0-1l7.2.86a2.43,2.43,0,0,0,.83,1.45,3.39,3.39,0,0,0,2.06.59,3,3,0,0,0,2.39-.89,4.75,4.75,0,0,0,.8-3.13V37.44a7.8,7.8,0,0,1-2.19,2,7.42,7.42,0,0,1-3.7,1,7.25,7.25,0,0,1-6.26-3.56A11.85,11.85,0,0,1,103,30.12c0-3.17.72-5.58,2.18-7.24a7.25,7.25,0,0,1,5.72-2.49,7.74,7.74,0,0,1,3.72.8,8.36,8.36,0,0,1,2.74,2.66Zm-7,9.85a5,5,0,0,0,.89,3.27,3.06,3.06,0,0,0,4.67,0,5,5,0,0,0,.94-3.33,5.22,5.22,0,0,0-1-3.4A3,3,0,0,0,113.46,26a2.74,2.74,0,0,0-2.27,1.08A6,6,0,0,0,110.35,30.71Z"/><path class="cls-1" d="M126.92,31.08a10.49,10.49,0,0,1,3-7.67,10.8,10.8,0,0,1,8.06-3q5.81,0,8.77,3.54a10.63,10.63,0,0,1,2.39,7,10.5,10.5,0,0,1-3,7.69q-3,3-8.18,3a11.07,11.07,0,0,1-7.53-2.49A10.24,10.24,0,0,1,126.92,31.08Zm7.42,0a6.4,6.4,0,0,0,1,4,3.31,3.31,0,0,0,5.25,0,6.68,6.68,0,0,0,1-4.13,6.28,6.28,0,0,0-1-3.95,3.16,3.16,0,0,0-2.56-1.29,3.25,3.25,0,0,0-2.66,1.31A6.3,6.3,0,0,0,134.34,31.08Zm3.47-18.45h6.38l-5.89,5.72h-3.55Z"/></g></g></svg>