<svg xmlns="http://www.w3.org/2000/svg" viewBox="0 0 333 110.37"><defs><style>.cls-1{fill:#fff;fill-rule:evenodd;}</style></defs><g id="Layer_2" data-name="Layer 2"><g id="Layer_1-2" data-name="Layer 1"><polyline class="cls-1" points="29.36 92.77 0 92.77 52.46 0 74.33 0 33.79 73.64 68.83 73.64 55.2 49.61 66.43 28.64 103.3 92.77 29.36 92.77"/><path class="cls-1" d="M168.29,45a14.52,14.52,0,0,1-3.3,9.53,14.64,14.64,0,0,1-6.43,4.18Q165,60.3,168,64.24a15.91,15.91,0,0,1,3,9.93,17.72,17.72,0,0,1-2.17,8.76,16.14,16.14,0,0,1-5.9,6.15,18.6,18.6,0,0,1-7,2.06,76.38,76.38,0,0,1-8.26.85H115.89V29.35h34.52c5.75,0,10.18,1.49,13.25,4.48A14.89,14.89,0,0,1,168.29,45m-33.83,9h8q4.32,0,6-1.57a5.82,5.82,0,0,0,1.7-4.51,5.46,5.46,0,0,0-1.7-4.27Q146.82,42,142.62,42h-8.16Zm0,24.59h9.41c3.17,0,5.41-.6,6.71-1.78a6.09,6.09,0,0,0,2-4.76,5.61,5.61,0,0,0-1.93-4.46c-1.3-1.13-3.55-1.69-6.79-1.69h-9.36Z"/><path class="cls-1" d="M192.57,61.28l-15.83-1.75a19.57,19.57,0,0,1,2.58-6.88,14.68,14.68,0,0,1,4.86-4.34,19.5,19.5,0,0,1,6.26-2.05,47.41,47.41,0,0,1,8.61-.73,64.7,64.7,0,0,1,11.95.88,15,15,0,0,1,7.51,3.66,12.85,12.85,0,0,1,3.33,5.45,20.44,20.44,0,0,1,1.22,6.74V82.32a25.22,25.22,0,0,0,.39,5A23.32,23.32,0,0,0,225.14,92H209.63a16.49,16.49,0,0,1-1.23-2.65,19.5,19.5,0,0,1-.56-2.87,21.17,21.17,0,0,1-6.48,4.69A25.57,25.57,0,0,1,191.16,93q-7.74,0-11.74-3.78a12.18,12.18,0,0,1-4-9.29,12.55,12.55,0,0,1,2.88-8.53q2.89-3.34,10.66-5c6.21-1.31,10.24-2.24,12.08-2.76a55.69,55.69,0,0,0,5.86-2.08c0-2.14-.41-3.64-1.26-4.5s-2.31-1.28-4.42-1.28q-4.07,0-6.09,1.38A7.57,7.57,0,0,0,192.57,61.28Zm14.33,9.1c-2.28.86-4.66,1.63-7.13,2.29q-5.06,1.42-6.39,2.8a4.68,4.68,0,0,0,0,6.63,5.55,5.55,0,0,0,4,1.31A9.84,9.84,0,0,0,202.52,82a8.37,8.37,0,0,0,3.38-3.47,12.2,12.2,0,0,0,1-5.34Z"/><path class="cls-1" d="M262,46.58h15.49V89.43l0,2a19.72,19.72,0,0,1-1.73,8.13,17,17,0,0,1-4.6,6.26,17.54,17.54,0,0,1-7.27,3.47,43.38,43.38,0,0,1-10.11,1.07q-13,0-17.87-4.12a13.64,13.64,0,0,1-4.87-11q0-.86.09-2.31l16.08,1.92a5.52,5.52,0,0,0,1.87,3.24,7.63,7.63,0,0,0,4.58,1.31,6.79,6.79,0,0,0,5.36-2q1.77-2,1.77-7V83.6A17.52,17.52,0,0,1,256,88a16.71,16.71,0,0,1-8.26,2.15q-8.66,0-14-8-3.78-5.65-3.78-14.94,0-10.61,4.88-16.17a16.18,16.18,0,0,1,12.77-5.56,17.13,17.13,0,0,1,8.31,1.8A18.49,18.49,0,0,1,262,53.27Zm-15.58,22c0,3.29.66,5.72,2,7.31a6.85,6.85,0,0,0,10.44-.09c1.4-1.64,2.1-4.11,2.1-7.43s-.73-5.84-2.2-7.6a6.76,6.76,0,0,0-5.37-2.63,6.08,6.08,0,0,0-5.07,2.42C247.05,62.16,246.42,64.84,246.42,68.57Z"/><path class="cls-1" d="M283.43,69.42q0-10.41,6.66-17.15t18-6.74q13,0,19.57,7.92A23.69,23.69,0,0,1,333,69.16c0,7-2.2,12.72-6.6,17.18S315.9,93,308.13,93q-10.39,0-16.82-5.57Q283.44,80.58,283.43,69.42Zm16.57,0c0,4,.79,7.06,2.34,9a7.38,7.38,0,0,0,11.71.06q2.28-2.88,2.28-9.23c0-4-.77-6.87-2.3-8.81a7.05,7.05,0,0,0-5.72-2.89,7.28,7.28,0,0,0-5.95,2.94Q300,63.38,300,69.4Zm7.75-41.2H322L308.84,41h-7.92Z"/></g></g></svg>